<svg xmlns="http://www.w3.org/2000/svg" xmlns:xlink="http://www.w3.org/1999/xlink" width="256" height="256" version="1.1" viewBox="0 0 256 256" xml:space="preserve"><desc>Created with Fabric.js 1.7.22</desc><g><g style="stroke:none;stroke-width:0;stroke-dasharray:none;stroke-linecap:butt;stroke-linejoin:miter;stroke-miterlimit:10;fill:none;fill-rule:nonzero;opacity:1"><path style="stroke:none;stroke-width:1;stroke-dasharray:none;stroke-linecap:butt;stroke-linejoin:miter;stroke-miterlimit:10;fill:#000;fill-rule:nonzero;opacity:1" stroke-linecap="round" d="M 86.5 48.5 h -83 C 1.567 48.5 0 46.933 0 45 s 1.567 -3.5 3.5 -3.5 h 83 c 1.933 0 3.5 1.567 3.5 3.5 S 88.433 48.5 86.5 48.5 z" transform="translate(128 128) scale(0.72 0.72) translate(-175.05 -175.05) scale(3.89 3.89) matrix(1 0 0 1 0 0)"/><path style="stroke:none;stroke-width:1;stroke-dasharray:none;stroke-linecap:butt;stroke-linejoin:miter;stroke-miterlimit:10;fill:#000;fill-rule:nonzero;opacity:1" stroke-linecap="round" d="M 86.5 48.5 h -83 C 1.567 48.5 0 46.933 0 45 s 1.567 -3.5 3.5 -3.5 h 83 c 1.933 0 3.5 1.567 3.5 3.5 S 88.433 48.5 86.5 48.5 z" transform="translate(128 128) scale(0.72 0.72) translate(-175.05 -175.05) scale(3.89 3.89) matrix(1 0 0 1 0 0)"/></g></g></svg>